<svg xmlns="http://www.w3.org/2000/svg" viewBox="0 0 32 32">
  <defs>
    <linearGradient id="grad" x1="0%" y1="0%" x2="100%" y2="100%">
      <stop offset="0%" style="stop-color:#6366f1;stop-opacity:1" />
      <stop offset="100%" style="stop-color:#4f46e5;stop-opacity:1" />
    </linearGradient>
  </defs>
  <rect width="32" height="32" rx="8" fill="url(#grad)"/>
  <path d="M16 10.253v11.5m0-11.5C14.832 9.477 13.246 9 11.5 9S8.168 9.477 7 10.253v11.5C8.168 20.977 9.754 20.5 11.5 20.5s3.332.477 4.5 1.253m0-11.5C17.168 9.477 18.754 9 20.5 9c1.747 0 3.332.477 4.5 1.253v11.5C23.832 20.977 22.247 20.5 20.5 20.5c-1.746 0-3.332.477-4.5 1.253" stroke="white" stroke-width="2.5" stroke-linecap="round" stroke-linejoin="round" fill="none"/>
</svg>
